<svg width="49" height="40" viewBox="0 0 49 40" fill="none" xmlns="http://www.w3.org/2000/svg">
<g id="Frame" clip-path="url(#clip0_999_455)">
<path id="Vector" d="M45.256 15H36.168C36.5063 15.8023 36.6736 16.6602 36.6736 17.518C36.6736 19.1352 36.0715 20.7508 34.8645 21.982L24.4366 32.6227V36.2453C24.4999 38.3203 26.146 40 28.1749 40H45.256C47.2849 40 48.8621 38.3203 48.8621 36.3203V18.75C48.931 16.6797 47.3538 15 45.256 15ZM36.681 29.375C35.6665 29.375 34.9124 28.5352 34.9124 27.5703C34.9124 26.6055 35.7354 25.7656 36.681 25.7656C37.6265 25.7656 38.4496 26.6055 38.4496 27.5703C38.4496 28.5352 37.7605 29.375 36.681 29.375ZM7.34989 15.625C6.33544 15.625 5.5813 16.4648 5.5813 17.4297C5.5813 18.3945 6.40435 19.2344 7.34989 19.2344C8.29544 19.2344 9.11849 18.3945 9.11849 17.4297C9.11849 16.4648 8.36817 15.625 7.34989 15.625ZM26.9499 19.375C27.9643 19.375 28.7185 18.5352 28.7185 17.5703C28.7185 16.6055 27.8954 15.7656 26.9499 15.7656C26.0043 15.7656 25.1124 16.4688 25.1124 17.5C25.1124 18.5312 25.9393 19.375 26.9499 19.375ZM17.1499 25.625C16.1354 25.625 15.3813 26.4648 15.3813 27.4297C15.3813 28.3945 16.2043 29.2344 17.1499 29.2344C18.1643 29.2344 18.9185 28.3945 18.9185 27.4297C18.9185 26.4648 18.1682 25.625 17.1499 25.625ZM17.1499 15.625C16.1354 15.625 15.3813 16.4648 15.3813 17.4297C15.3813 18.3945 16.2043 19.2344 17.1499 19.2344C18.0954 19.2344 18.9185 18.3945 18.9185 17.4297C18.9185 16.4648 18.1682 15.625 17.1499 15.625ZM17.1499 5.625C16.1354 5.625 15.3813 6.46484 15.3813 7.42969C15.3813 8.39453 16.2043 9.23437 17.1499 9.23437C18.1643 9.23437 18.9185 8.39453 18.9185 7.42969C18.9185 6.46484 18.1682 5.625 17.1499 5.625Z" fill="white"/>
<path id="Vector_2" opacity="0.4" d="M34.2309 17.5C34.2309 16.5187 33.8648 15.5367 33.1323 14.7844L19.7415 1.12031C19.0716 0.37375 18.1069 0 17.0809 0C16.1852 0 15.2281 0.37375 14.4855 1.12109L1.09851 14.7812C0.366115 15.5391 -0.000244141 16.5156 -0.000244141 17.4297C-0.000244141 18.4109 0.366184 19.3969 1.09843 20.1484L14.4892 33.8125C15.2262 34.5596 16.1881 34.9336 17.1498 34.9336C18.1114 34.9336 19.0738 34.56 19.8103 33.8125L33.2011 20.1484C33.9323 19.4609 34.2309 18.4844 34.2309 17.5ZM7.34984 19.375C6.33539 19.375 5.58125 18.5352 5.58125 17.5703C5.58125 16.6055 6.40429 15.7656 7.34984 15.7656C8.29539 15.7656 9.11843 16.6055 9.11843 17.5703C9.11843 18.5352 8.36812 19.375 7.34984 19.375ZM17.1498 29.375C16.1354 29.375 15.3812 28.5352 15.3812 27.5703C15.3812 26.6055 16.2043 25.7656 17.1498 25.7656C18.1643 25.7656 18.9184 26.6055 18.9184 27.5703C18.9184 28.5352 18.1681 29.375 17.1498 29.375ZM17.1498 19.375C16.1354 19.375 15.3812 18.5352 15.3812 17.5703C15.3812 16.6055 16.2043 15.7656 17.1498 15.7656C18.0954 15.7656 18.9184 16.6055 18.9184 17.5703C18.9184 18.5352 18.1681 19.375 17.1498 19.375ZM17.1498 9.375C16.1354 9.375 15.3812 8.53516 15.3812 7.57031C15.3812 6.60547 16.2043 5.76562 17.1498 5.76562C18.1643 5.76562 18.9184 6.60547 18.9184 7.57031C18.9184 8.53516 18.1681 9.375 17.1498 9.375ZM26.9498 19.375C25.9354 19.375 25.1812 18.5352 25.1812 17.5703C25.1812 16.6055 26.0043 15.7656 26.9498 15.7656C27.8954 15.7656 28.7184 16.6055 28.7184 17.5703C28.7184 18.5352 27.9681 19.375 26.9498 19.375Z" fill="white"/>
</g>
<defs>
<clipPath id="clip0_999_455">
<rect width="49" height="40" fill="white"/>
</clipPath>
</defs>
</svg>
