<svg width="40" height="40" viewBox="0 0 40 40" fill="none" xmlns="http://www.w3.org/2000/svg">
<g id="Frame" clip-path="url(#clip0_999_422)">
<path id="Vector" d="M27.7734 3.55703L26.75 1.17031C24.5664 0.390391 22.2828 0 19.9984 0C17.7133 0 15.4273 0.39 13.2438 1.16953L12.2266 3.55703L20 7.86406L27.7734 3.55703ZM6.77969 7.51172L4.19297 7.74141C1.475 11.2375 0 15.5383 0 19.968L7.8125e-06 20C7.8125e-06 20.2105 0.0040625 20.4202 0.0105703 20.6299L1.95979 22.3299L8.45979 16.262L6.77969 7.51172ZM24.9062 26.25L27.9141 16.9844L19.9297 11.25L12.0859 16.9844L15.1188 26.25H24.9062ZM40 19.9688C40 15.5391 38.5234 11.2344 35.8031 7.74219L33.25 7.5125L31.5391 16.2656L38.0398 22.3336L39.9867 20.6313C39.9297 20.3203 40 20.1641 40 19.9688ZM4.04453 28.7266L3.46719 31.2625C6.08281 35.0992 9.94844 37.9086 14.4047 39.2078L16.6391 37.8805L12.8742 29.8102L4.04453 28.7266ZM27.125 29.8047L23.3602 37.875L25.5922 39.2031C30.0492 37.9016 33.9125 35.0922 36.5297 31.2578L35.9531 28.7219L27.125 29.8047Z" fill="white"/>
<path id="Vector_2" opacity="0.4" d="M39.9844 20.625C39.8718 24.4265 38.6704 28.1148 36.5251 31.2578L35.9485 28.7219L27.1204 29.8047L23.3555 37.875L25.5602 39.1906C23.7258 39.7203 21.836 39.9875 19.9469 39.9875C18.0907 39.9875 16.2352 39.7295 14.4329 39.2092L16.6383 37.8764L12.8735 29.8061L4.04536 28.7217L3.46802 31.2576C1.32349 28.1178 0.124268 24.4287 0.0109863 20.6248L1.96021 22.3248L8.46021 16.2569L6.77974 7.51169L4.19302 7.74138C6.51489 4.74998 9.63599 2.4781 13.193 1.18826L13.2212 1.20923L12.2266 3.55701L20.0001 7.86404L27.7735 3.55701L26.75 1.17029C30.3297 2.45779 33.4688 4.73591 35.8047 7.74138L33.25 7.51248L31.5391 16.2656L38.0399 22.3336L39.9844 20.625ZM27.9141 16.9844L19.9297 11.25L12.086 16.9844L15.1188 26.25H24.9063L27.9141 16.9844Z" fill="white"/>
</g>
<defs>
<clipPath id="clip0_999_422">
<rect width="40" height="40" fill="white"/>
</clipPath>
</defs>
</svg>
