<svg width="234" height="51" viewBox="0 0 234 51" fill="none" xmlns="http://www.w3.org/2000/svg">
<path d="M82.8899 29.4374C82.1851 29.4374 81.6063 29.2228 81.1532 28.7936C80.7002 28.3392 80.4737 27.7839 80.4737 27.1275V5.16524H85.3813V27.1275C85.3813 27.7839 85.1428 28.3392 84.6642 28.7936C84.2112 29.2228 83.6197 29.4374 82.8899 29.4374ZM74.5466 7.28574C73.8921 7.28574 73.3385 7.08376 72.8854 6.67988C72.4576 6.27601 72.2437 5.74588 72.2437 5.08951C72.2437 4.43314 72.4576 3.91566 72.8854 3.537C73.3385 3.13313 73.8921 2.93115 74.5466 2.93115H91.3085C91.9631 2.93115 92.5046 3.13313 92.9318 3.537C93.3849 3.94088 93.6114 4.471 93.6114 5.12737C93.6114 5.78375 93.3849 6.31387 92.9318 6.71775C92.5046 7.09641 91.9631 7.28574 91.3085 7.28574H74.5466ZM102.176 29.816C100.037 29.816 98.1743 29.3743 96.5887 28.4907C95.028 27.5819 93.8199 26.3576 92.9644 24.8177C92.1339 23.2779 91.7186 21.536 91.7186 19.5922C91.7186 17.3202 92.1716 15.3891 93.0777 13.7987C94.0086 12.1831 95.2167 10.9461 96.7019 10.0878C98.1872 9.22956 99.7599 8.80038 101.421 8.80038C102.705 8.80038 103.913 9.06544 105.045 9.59557C106.203 10.1257 107.222 10.8578 108.103 11.7918C108.984 12.7006 109.676 13.7608 110.18 14.9725C110.708 16.1843 110.972 17.4717 110.972 18.8349C110.947 19.4407 110.708 19.933 110.255 20.3117C109.802 20.6903 109.274 20.8796 108.669 20.8796H94.248L93.1155 17.093H106.971L106.14 17.8504V16.828C106.089 16.0959 105.825 15.4396 105.347 14.8589C104.894 14.2783 104.315 13.8239 103.611 13.4958C102.931 13.1423 102.201 12.9656 101.421 12.9656C100.666 12.9656 99.9615 13.0666 99.3069 13.2686C98.6522 13.4706 98.0859 13.8113 97.608 14.291C97.1301 14.7706 96.7526 15.4143 96.4754 16.2221C96.1983 17.03 96.0601 18.0523 96.0601 19.2893C96.0601 20.6524 96.3373 21.8136 96.8907 22.7729C97.4699 23.7069 98.1992 24.4264 99.0804 24.9313C99.9864 25.4109 100.943 25.6508 101.95 25.6508C102.88 25.6508 103.624 25.575 104.177 25.4236C104.73 25.2721 105.171 25.0954 105.498 24.8934C105.851 24.6662 106.165 24.4769 106.442 24.3255C106.895 24.0983 107.323 23.9847 107.726 23.9847C108.279 23.9847 108.732 24.174 109.085 24.5526C109.462 24.9313 109.651 25.373 109.651 25.878C109.651 26.5595 109.298 27.1781 108.594 27.7334C107.939 28.2887 107.021 28.781 105.838 29.2102C104.655 29.614 103.435 29.816 102.176 29.816ZM117.196 29.4374C116.541 29.4374 116 29.2228 115.572 28.7936C115.144 28.3392 114.93 27.7839 114.93 27.1275V11.4889C114.93 10.8325 115.144 10.2898 115.572 9.86063C116 9.40624 116.541 9.17904 117.196 9.17904C117.85 9.17904 118.391 9.40624 118.819 9.86063C119.247 10.2898 119.461 10.8325 119.461 11.4889V15.0483L119.196 12.5113C119.474 11.9054 119.825 11.3753 120.253 10.9209C120.707 10.4413 121.21 10.05 121.764 9.74703C122.317 9.41889 122.909 9.17904 123.538 9.02758C124.167 8.87611 124.797 8.80038 125.426 8.80038C126.181 8.80038 126.81 9.01492 127.313 9.4441C127.842 9.87328 128.106 10.3781 128.106 10.9587C128.106 11.7918 127.892 12.3977 127.464 12.7763C127.036 13.1298 126.571 13.3064 126.067 13.3064C125.589 13.3064 125.148 13.2181 124.746 13.0414C124.369 12.8647 123.928 12.7763 123.425 12.7763C122.972 12.7763 122.506 12.8899 122.028 13.1171C121.575 13.3191 121.147 13.6472 120.744 14.1016C120.367 14.556 120.052 15.124 119.8 15.8056C119.574 16.462 119.461 17.2445 119.461 18.1533V27.1275C119.461 27.7839 119.247 28.3392 118.819 28.7936C118.391 29.2228 117.85 29.4374 117.196 29.4374ZM147.393 8.80038C148.047 8.80038 148.588 9.01492 149.017 9.4441C149.444 9.87328 149.658 10.4286 149.658 11.1102V27.1275C149.658 27.7839 149.444 28.3392 149.017 28.7936C148.588 29.2228 148.047 29.4374 147.393 29.4374C146.739 29.4374 146.197 29.2228 145.77 28.7936C145.342 28.3392 145.128 27.7839 145.128 27.1275V25.2721L145.959 25.6129C145.959 25.941 145.782 26.345 145.43 26.8246C145.077 27.279 144.6 27.7334 143.996 28.1878C143.391 28.6422 142.674 29.0335 141.844 29.3616C141.038 29.6646 140.157 29.816 139.201 29.816C137.464 29.816 135.891 29.3743 134.482 28.4907C133.072 27.5819 131.952 26.345 131.122 24.7798C130.316 23.1895 129.914 21.3719 129.914 19.3271C129.914 17.2572 130.316 15.4396 131.122 13.8744C131.952 12.2841 133.059 11.0471 134.444 10.1636C135.828 9.25477 137.363 8.80038 139.05 8.80038C140.132 8.80038 141.126 8.96449 142.032 9.29264C142.938 9.62078 143.718 10.0373 144.373 10.5422C145.053 11.0471 145.568 11.5646 145.921 12.0947C146.298 12.5996 146.487 13.0287 146.487 13.3822L145.128 13.8744V11.1102C145.128 10.4538 145.342 9.91114 145.77 9.48197C146.197 9.02758 146.739 8.80038 147.393 8.80038ZM139.767 25.6508C140.874 25.6508 141.844 25.373 142.674 24.8177C143.505 24.2624 144.147 23.505 144.6 22.5457C145.077 21.5864 145.317 20.5136 145.317 19.3271C145.317 18.1154 145.077 17.03 144.6 16.0707C144.147 15.1114 143.505 14.354 142.674 13.7987C141.844 13.2434 140.874 12.9656 139.767 12.9656C138.684 12.9656 137.729 13.2434 136.898 13.7987C136.067 14.354 135.413 15.1114 134.935 16.0707C134.482 17.03 134.255 18.1154 134.255 19.3271C134.255 20.5136 134.482 21.5864 134.935 22.5457C135.413 23.505 136.067 24.2624 136.898 24.8177C137.729 25.373 138.684 25.6508 139.767 25.6508ZM165.021 8.80038C166.783 8.80038 168.355 9.25477 169.74 10.1636C171.149 11.0471 172.257 12.2714 173.062 13.8366C173.893 15.4017 174.308 17.2193 174.308 19.2893C174.308 21.3592 173.893 23.1895 173.062 24.7798C172.257 26.345 171.162 27.5819 169.778 28.4907C168.419 29.3743 166.883 29.816 165.172 29.816C164.165 29.816 163.221 29.6519 162.341 29.3238C161.459 28.9956 160.68 28.5791 160 28.0742C159.345 27.5693 158.83 27.0645 158.452 26.5595C158.099 26.0294 157.924 25.5877 157.924 25.2342L159.094 24.742V27.5062C159.094 28.1626 158.879 28.7179 158.452 29.1723C158.024 29.6015 157.483 29.816 156.829 29.816C156.174 29.816 155.633 29.6015 155.205 29.1723C154.777 28.7431 154.564 28.1878 154.564 27.5062V3.72633C154.564 3.06996 154.777 2.52727 155.205 2.09809C155.633 1.6437 156.174 1.4165 156.829 1.4165C157.483 1.4165 158.024 1.6437 158.452 2.09809C158.879 2.52727 159.094 3.06996 159.094 3.72633V13.3443L158.452 13.0035C158.452 12.6754 158.628 12.2841 158.981 11.8297C159.332 11.3501 159.811 10.883 160.415 10.4286C161.019 9.94901 161.711 9.5577 162.492 9.25477C163.296 8.95184 164.14 8.80038 165.021 8.80038ZM164.455 12.9656C163.347 12.9656 162.378 13.2434 161.548 13.7987C160.717 14.354 160.063 15.1114 159.585 16.0707C159.132 17.0047 158.905 18.0776 158.905 19.2893C158.905 20.4758 159.132 21.5612 159.585 22.5457C160.063 23.505 160.717 24.2624 161.548 24.8177C162.378 25.373 163.347 25.6508 164.455 25.6508C165.562 25.6508 166.518 25.373 167.324 24.8177C168.155 24.2624 168.796 23.505 169.249 22.5457C169.727 21.5612 169.967 20.4758 169.967 19.2893C169.967 18.0776 169.727 17.0047 169.249 16.0707C168.796 15.1114 168.155 14.354 167.324 13.7987C166.518 13.2434 165.562 12.9656 164.455 12.9656ZM193.256 9.17904C193.911 9.17904 194.453 9.40624 194.88 9.86063C195.308 10.2898 195.522 10.8325 195.522 11.4889V27.5819C195.522 29.9044 195.081 31.7472 194.2 33.1104C193.345 34.4988 192.187 35.4959 190.727 36.1018C189.268 36.7076 187.631 37.0106 185.819 37.0106C185.014 37.0106 184.158 36.9475 183.252 36.8212C182.346 36.695 181.604 36.5057 181.025 36.2532C180.27 35.9251 179.741 35.5086 179.439 35.0037C179.163 34.5241 179.112 34.0065 179.288 33.4512C179.515 32.7191 179.88 32.2142 180.383 31.9365C180.887 31.6841 181.415 31.6588 181.969 31.8608C182.372 31.987 182.9 32.1764 183.554 32.4288C184.209 32.7065 184.964 32.8453 185.819 32.8453C186.978 32.8453 187.933 32.6812 188.688 32.353C189.469 32.0501 190.048 31.52 190.425 30.7627C190.828 30.0306 191.029 29.0208 191.029 27.7334V25.1964L191.822 26.1052C191.395 26.9382 190.853 27.6324 190.199 28.1878C189.57 28.7179 188.815 29.1218 187.933 29.3995C187.053 29.6772 186.046 29.816 184.913 29.816C183.58 29.816 182.41 29.5131 181.402 28.9072C180.421 28.2762 179.654 27.4178 179.099 26.3323C178.546 25.2216 178.269 23.9594 178.269 22.5457V11.4889C178.269 10.8325 178.483 10.2898 178.911 9.86063C179.339 9.40624 179.88 9.17904 180.534 9.17904C181.189 9.17904 181.73 9.40624 182.157 9.86063C182.585 10.2898 182.799 10.8325 182.799 11.4889V21.1826C182.799 22.8235 183.152 23.9847 183.856 24.6662C184.586 25.3226 185.593 25.6508 186.876 25.6508C187.757 25.6508 188.5 25.4866 189.104 25.1585C189.708 24.8051 190.174 24.3002 190.501 23.6439C190.828 22.9623 190.991 22.1419 190.991 21.1826V11.4889C190.991 10.8325 191.206 10.2898 191.633 9.86063C192.061 9.40624 192.603 9.17904 193.256 9.17904ZM200.653 9.5577H209.601C210.205 9.5577 210.708 9.75968 211.111 10.1636C211.513 10.5674 211.715 11.0723 211.715 11.6782C211.715 12.2588 211.513 12.7511 211.111 13.155C210.708 13.5336 210.205 13.723 209.601 13.723H200.653C200.049 13.723 199.546 13.521 199.143 13.1171C198.74 12.7132 198.539 12.2083 198.539 11.6025C198.539 11.0218 198.74 10.5422 199.143 10.1636C199.546 9.75968 200.049 9.5577 200.653 9.5577ZM204.693 4.82445C205.347 4.82445 205.875 5.05164 206.279 5.50603C206.706 5.93521 206.92 6.4779 206.92 7.13427V23.9847C206.92 24.3381 206.983 24.6284 207.109 24.8556C207.26 25.0828 207.449 25.2469 207.675 25.3478C207.927 25.4488 208.191 25.4993 208.468 25.4993C208.77 25.4993 209.046 25.4488 209.299 25.3478C209.55 25.2216 209.839 25.1585 210.167 25.1585C210.519 25.1585 210.834 25.3226 211.111 25.6508C211.413 25.9789 211.564 26.4333 211.564 27.0139C211.564 27.7207 211.173 28.3014 210.394 28.7558C209.639 29.2102 208.82 29.4374 207.94 29.4374C207.411 29.4374 206.819 29.3995 206.165 29.3238C205.535 29.2228 204.931 29.0082 204.353 28.68C203.799 28.3266 203.334 27.7965 202.956 27.0897C202.579 26.3829 202.39 25.4109 202.39 24.174V7.13427C202.39 6.4779 202.604 5.93521 203.032 5.50603C203.485 5.05164 204.038 4.82445 204.693 4.82445ZM225.204 29.816C223.064 29.816 221.202 29.3743 219.616 28.4907C218.056 27.5819 216.848 26.3576 215.992 24.8177C215.162 23.2779 214.746 21.536 214.746 19.5922C214.746 17.3202 215.199 15.3891 216.105 13.7987C217.036 12.1831 218.244 10.9461 219.73 10.0878C221.214 9.22956 222.788 8.80038 224.449 8.80038C225.732 8.80038 226.94 9.06544 228.073 9.59557C229.23 10.1257 230.25 10.8578 231.131 11.7918C232.011 12.7006 232.704 13.7608 233.207 14.9725C233.736 16.1843 234 17.4717 234 18.8349C233.974 19.4407 233.736 19.933 233.283 20.3117C232.83 20.6903 232.301 20.8796 231.697 20.8796H217.276L216.143 17.093H229.998L229.168 17.8504V16.828C229.117 16.0959 228.853 15.4396 228.375 14.8589C227.922 14.2783 227.343 13.8239 226.638 13.4958C225.959 13.1423 225.229 12.9656 224.449 12.9656C223.694 12.9656 222.988 13.0666 222.334 13.2686C221.68 13.4706 221.114 13.8113 220.636 14.291C220.157 14.7706 219.779 15.4143 219.503 16.2221C219.226 17.03 219.088 18.0523 219.088 19.2893C219.088 20.6524 219.364 21.8136 219.918 22.7729C220.497 23.7069 221.227 24.4264 222.108 24.9313C223.014 25.4109 223.97 25.6508 224.977 25.6508C225.908 25.6508 226.65 25.575 227.205 25.4236C227.758 25.2721 228.198 25.0954 228.526 24.8934C228.878 24.6662 229.193 24.4769 229.47 24.3255C229.923 24.0983 230.35 23.9847 230.753 23.9847C231.307 23.9847 231.76 24.174 232.112 24.5526C232.49 24.9313 232.679 25.373 232.679 25.878C232.679 26.5595 232.326 27.1781 231.622 27.7334C230.967 28.2887 230.048 28.781 228.866 29.2102C227.682 29.614 226.462 29.816 225.204 29.816Z" fill="white"/>
<path d="M81.0205 36.7093H85.4937C85.7957 36.7093 86.048 36.8102 86.2487 37.0122C86.4504 37.2142 86.5508 37.4666 86.5508 37.7695C86.5508 38.0598 86.4504 38.3059 86.2487 38.5079C86.048 38.6972 85.7957 38.7919 85.4937 38.7919H81.0205C80.7184 38.7919 80.4667 38.691 80.2654 38.489C80.064 38.287 79.9634 38.0346 79.9634 37.7317C79.9634 37.4414 80.064 37.2015 80.2654 37.0122C80.4667 36.8102 80.7184 36.7093 81.0205 36.7093ZM83.0402 34.3426C83.3674 34.3426 83.6316 34.4562 83.833 34.6834C84.0469 34.898 84.1539 35.1694 84.1539 35.4976V43.9227C84.1539 44.0994 84.1853 44.2446 84.2483 44.3582C84.3238 44.4718 84.4182 44.5538 84.5314 44.6043C84.6572 44.6549 84.7893 44.6801 84.9274 44.6801C85.0784 44.6801 85.2174 44.6549 85.3427 44.6043C85.4688 44.5413 85.6138 44.5097 85.7768 44.5097C85.9536 44.5097 86.1106 44.5917 86.2487 44.7558C86.3997 44.9199 86.4753 45.1471 86.4753 45.4374C86.4753 45.7908 86.2805 46.0811 85.8901 46.3083C85.5126 46.5355 85.1041 46.6491 84.6636 46.6491C84.3993 46.6491 84.1035 46.6302 83.7764 46.5923C83.4617 46.5418 83.1597 46.4346 82.8703 46.2704C82.5934 46.0938 82.3607 45.8287 82.1719 45.4753C81.9831 45.1218 81.8888 44.6359 81.8888 44.0174V35.4976C81.8888 35.1694 81.9957 34.898 82.2096 34.6834C82.4362 34.4562 82.713 34.3426 83.0402 34.3426ZM93.2956 46.8384C92.2256 46.8384 91.2947 46.6175 90.5019 46.1758C89.722 45.7214 89.1179 45.1092 88.6898 44.3393C88.2745 43.5693 88.0669 42.6984 88.0669 41.7265C88.0669 40.5905 88.2934 39.625 88.7464 38.8298C89.2123 38.0219 89.8163 37.4035 90.5585 36.9743C91.3007 36.5452 92.0875 36.3306 92.9181 36.3306C93.5598 36.3306 94.1639 36.4631 94.7302 36.7282C95.3093 36.9933 95.819 37.3593 96.2592 37.8263C96.6993 38.2807 97.0459 38.8108 97.2973 39.4167C97.5616 40.0225 97.6937 40.6663 97.6937 41.3479C97.6809 41.6508 97.5616 41.8969 97.3351 42.0862C97.1086 42.2756 96.8443 42.3702 96.5423 42.3702H89.3316L88.7653 40.4769H95.6929L95.2776 40.8556V40.3444C95.2527 39.9784 95.1206 39.6502 94.8812 39.3599C94.6547 39.0696 94.3655 38.8424 94.0129 38.6783C93.6731 38.5016 93.3084 38.4132 92.9181 38.4132C92.5405 38.4132 92.1879 38.4638 91.861 38.5647C91.5341 38.6657 91.2509 38.836 91.0116 39.0759C90.7722 39.3157 90.5834 39.6376 90.4453 40.0415C90.3071 40.4454 90.2376 40.9565 90.2376 41.5751C90.2376 42.2566 90.3758 42.8373 90.6529 43.3169C90.9421 43.7839 91.3076 44.1437 91.7477 44.3961C92.2008 44.6359 92.6787 44.7558 93.1823 44.7558C93.6482 44.7558 94.0189 44.7179 94.296 44.6422C94.5732 44.5665 94.7928 44.4781 94.9567 44.3771C95.1326 44.2635 95.2905 44.1689 95.4286 44.0931C95.6551 43.9795 95.8688 43.9227 96.0704 43.9227C96.3475 43.9227 96.574 44.0174 96.7499 44.2067C96.9387 44.3961 97.0331 44.617 97.0331 44.8694C97.0331 45.2102 96.8572 45.5194 96.5045 45.7971C96.1776 46.0748 95.7177 46.321 95.1266 46.5355C94.5354 46.7375 93.9245 46.8384 93.2956 46.8384ZM104.166 36.3306C104.883 36.3306 105.506 36.4063 106.034 36.5578C106.575 36.7093 106.99 36.9238 107.28 37.2015C107.582 37.4666 107.733 37.7885 107.733 38.1671C107.733 38.4195 107.658 38.6594 107.507 38.8866C107.356 39.1011 107.135 39.2084 106.846 39.2084C106.645 39.2084 106.475 39.1832 106.336 39.1327C106.21 39.0696 106.097 38.9939 105.997 38.9055C105.895 38.8171 105.776 38.7351 105.638 38.6594C105.512 38.5836 105.317 38.5268 105.053 38.489C104.801 38.4385 104.612 38.4132 104.487 38.4132C103.845 38.4132 103.297 38.5521 102.844 38.8298C102.403 39.1075 102.064 39.4861 101.825 39.9657C101.586 40.4328 101.466 40.9755 101.466 41.594C101.466 42.1998 101.586 42.7426 101.825 43.2222C102.076 43.6893 102.416 44.0616 102.844 44.3393C103.285 44.617 103.788 44.7558 104.354 44.7558C104.669 44.7558 104.94 44.7369 105.166 44.699C105.393 44.6611 105.581 44.6043 105.732 44.5286C105.908 44.4277 106.065 44.3203 106.204 44.2067C106.342 44.0931 106.55 44.0363 106.827 44.0363C107.154 44.0363 107.406 44.1437 107.582 44.3582C107.758 44.5602 107.847 44.8126 107.847 45.1155C107.847 45.4311 107.67 45.7214 107.318 45.9864C106.965 46.2389 106.5 46.4471 105.921 46.6112C105.355 46.7627 104.738 46.8384 104.071 46.8384C103.077 46.8384 102.215 46.6112 101.485 46.1568C100.755 45.6898 100.189 45.0587 99.7864 44.2635C99.396 43.4684 99.2013 42.5785 99.2013 41.594C99.2013 40.559 99.4089 39.6502 99.8242 38.8676C100.251 38.0724 100.837 37.4539 101.58 37.0122C102.335 36.5578 103.196 36.3306 104.166 36.3306ZM114.878 36.3306C115.81 36.3306 116.514 36.5262 116.992 36.9175C117.483 37.3088 117.817 37.8326 117.993 38.489C118.181 39.1327 118.276 39.8521 118.276 40.6473V45.4942C118.276 45.8223 118.169 46.1 117.955 46.3272C117.741 46.5418 117.471 46.6491 117.143 46.6491C116.816 46.6491 116.546 46.5418 116.331 46.3272C116.118 46.1 116.011 45.8223 116.011 45.4942V40.6473C116.011 40.2308 115.954 39.8584 115.841 39.5303C115.74 39.1895 115.552 38.9181 115.274 38.7162C114.998 38.5142 114.602 38.4132 114.085 38.4132C113.582 38.4132 113.154 38.5142 112.802 38.7162C112.462 38.9181 112.198 39.1895 112.009 39.5303C111.833 39.8584 111.745 40.2308 111.745 40.6473V45.4942C111.745 45.8223 111.638 46.1 111.424 46.3272C111.21 46.5418 110.94 46.6491 110.612 46.6491C110.285 46.6491 110.015 46.5418 109.8 46.3272C109.587 46.1 109.479 45.8223 109.479 45.4942V37.6749C109.479 37.3467 109.587 37.0753 109.8 36.8607C110.015 36.6335 110.285 36.5199 110.612 36.5199C110.94 36.5199 111.21 36.6335 111.424 36.8607C111.638 37.0753 111.745 37.3467 111.745 37.6749V38.489L111.461 38.4322C111.575 38.2176 111.739 37.9904 111.952 37.7506C112.167 37.4982 112.418 37.2646 112.707 37.0501C112.997 36.8355 113.324 36.6651 113.689 36.5389C114.054 36.4001 114.451 36.3306 114.878 36.3306ZM130.521 41.594C130.521 42.629 130.288 43.5441 129.823 44.3393C129.37 45.1218 128.753 45.734 127.973 46.1758C127.205 46.6175 126.343 46.8384 125.387 46.8384C124.43 46.8384 123.562 46.6175 122.782 46.1758C122.014 45.734 121.397 45.1218 120.932 44.3393C120.479 43.5441 120.253 42.629 120.253 41.594C120.253 40.559 120.479 39.6502 120.932 38.8676C121.397 38.0724 122.014 37.4539 122.782 37.0122C123.562 36.5578 124.43 36.3306 125.387 36.3306C126.343 36.3306 127.205 36.5578 127.973 37.0122C128.753 37.4539 129.37 38.0724 129.823 38.8676C130.288 39.6502 130.521 40.559 130.521 41.594ZM128.256 41.594C128.256 40.9503 128.124 40.3949 127.86 39.9279C127.607 39.4483 127.262 39.0759 126.822 38.8108C126.393 38.5458 125.915 38.4132 125.387 38.4132C124.858 38.4132 124.374 38.5458 123.933 38.8108C123.505 39.0759 123.16 39.4483 122.895 39.9279C122.643 40.3949 122.518 40.9503 122.518 41.594C122.518 42.2251 122.643 42.7805 122.895 43.2601C123.16 43.7271 123.505 44.0931 123.933 44.3582C124.374 44.6233 124.858 44.7558 125.387 44.7558C125.915 44.7558 126.393 44.6233 126.822 44.3582C127.262 44.0931 127.607 43.7271 127.86 43.2601C128.124 42.7805 128.256 42.2251 128.256 41.594ZM134.957 45.4942C134.957 45.8223 134.844 46.1 134.617 46.3272C134.404 46.5418 134.133 46.6491 133.806 46.6491C133.492 46.6491 133.227 46.5418 133.013 46.3272C132.799 46.1 132.692 45.8223 132.692 45.4942V33.7936C132.692 33.4654 132.799 33.194 133.013 32.9795C133.239 32.7523 133.517 32.6387 133.843 32.6387C134.171 32.6387 134.435 32.7523 134.636 32.9795C134.851 33.194 134.957 33.4654 134.957 33.7936V45.4942ZM147.204 41.594C147.204 42.629 146.971 43.5441 146.505 44.3393C146.052 45.1218 145.435 45.734 144.655 46.1758C143.887 46.6175 143.026 46.8384 142.069 46.8384C141.113 46.8384 140.244 46.6175 139.464 46.1758C138.696 45.734 138.08 45.1218 137.614 44.3393C137.161 43.5441 136.935 42.629 136.935 41.594C136.935 40.559 137.161 39.6502 137.614 38.8676C138.08 38.0724 138.696 37.4539 139.464 37.0122C140.244 36.5578 141.113 36.3306 142.069 36.3306C143.026 36.3306 143.887 36.5578 144.655 37.0122C145.435 37.4539 146.052 38.0724 146.505 38.8676C146.971 39.6502 147.204 40.559 147.204 41.594ZM144.938 41.594C144.938 40.9503 144.806 40.3949 144.542 39.9279C144.291 39.4483 143.944 39.0759 143.504 38.8108C143.076 38.5458 142.598 38.4132 142.069 38.4132C141.541 38.4132 141.056 38.5458 140.616 38.8108C140.188 39.0759 139.842 39.4483 139.578 39.9279C139.326 40.3949 139.2 40.9503 139.2 41.594C139.2 42.2251 139.326 42.7805 139.578 43.2601C139.842 43.7271 140.188 44.0931 140.616 44.3582C141.056 44.6233 141.541 44.7558 142.069 44.7558C142.598 44.7558 143.076 44.6233 143.504 44.3582C143.944 44.0931 144.291 43.7271 144.542 43.2601C144.806 42.7805 144.938 42.2251 144.938 41.594ZM153.377 36.3306C153.905 36.3306 154.389 36.4126 154.83 36.5767C155.271 36.7409 155.648 36.9491 155.963 37.2015C156.29 37.4539 156.541 37.7127 156.718 37.9778C156.907 38.2302 157.001 38.4448 157.001 38.6215L156.51 38.8676V37.4855C156.51 37.1574 156.617 36.8859 156.831 36.6714C157.045 36.4442 157.315 36.3306 157.643 36.3306C157.97 36.3306 158.24 36.4379 158.455 36.6525C158.668 36.867 158.776 37.1447 158.776 37.4855V45.9107C158.776 47.0088 158.536 47.886 158.058 48.5424C157.592 49.2113 156.975 49.691 156.208 49.9813C155.44 50.2842 154.616 50.4357 153.736 50.4357C153.483 50.4357 153.156 50.4041 152.754 50.341C152.351 50.278 151.967 50.2022 151.603 50.1138C151.237 50.0255 150.961 49.9434 150.772 49.8677C150.395 49.7036 150.13 49.4953 149.979 49.2429C149.84 49.0031 149.815 48.7444 149.904 48.4667C150.017 48.1007 150.199 47.8482 150.451 47.7094C150.703 47.5831 150.967 47.5705 151.244 47.6715C151.369 47.7094 151.577 47.7851 151.867 47.8987C152.156 48.0123 152.471 48.1132 152.811 48.2016C153.162 48.3026 153.471 48.3531 153.736 48.3531C154.679 48.3531 155.378 48.1637 155.831 47.7851C156.284 47.4064 156.51 46.8826 156.51 46.2136V44.5665L156.737 44.7369C156.737 44.901 156.649 45.1029 156.473 45.3427C156.309 45.5699 156.076 45.7971 155.774 46.0243C155.484 46.2515 155.138 46.4471 154.736 46.6112C154.333 46.7627 153.905 46.8384 153.452 46.8384C152.558 46.8384 151.754 46.6175 151.036 46.1758C150.319 45.7214 149.753 45.1029 149.337 44.3203C148.922 43.5252 148.715 42.6164 148.715 41.594C148.715 40.559 148.922 39.6502 149.337 38.8676C149.753 38.0724 150.312 37.4539 151.017 37.0122C151.722 36.5578 152.509 36.3306 153.377 36.3306ZM153.736 38.4132C153.169 38.4132 152.672 38.5521 152.244 38.8298C151.816 39.1075 151.482 39.4861 151.244 39.9657C151.005 40.4454 150.885 40.9881 150.885 41.594C150.885 42.1872 151.005 42.7237 151.244 43.2033C151.482 43.6829 151.816 44.0616 152.244 44.3393C152.672 44.617 153.169 44.7558 153.736 44.7558C154.314 44.7558 154.818 44.617 155.246 44.3393C155.673 44.0616 156.007 43.6829 156.246 43.2033C156.485 42.7237 156.605 42.1872 156.605 41.594C156.605 40.9881 156.485 40.4454 156.246 39.9657C156.007 39.4861 155.673 39.1075 155.246 38.8298C154.818 38.5521 154.314 38.4132 153.736 38.4132ZM163.356 45.4942C163.356 45.8223 163.249 46.1 163.036 46.3272C162.822 46.5418 162.551 46.6491 162.224 46.6491C161.897 46.6491 161.626 46.5418 161.412 46.3272C161.199 46.1 161.091 45.8223 161.091 45.4942V37.6749C161.091 37.3467 161.199 37.0753 161.412 36.8607C161.626 36.6335 161.897 36.5199 162.224 36.5199C162.551 36.5199 162.822 36.6335 163.036 36.8607C163.249 37.0753 163.356 37.3467 163.356 37.6749V45.4942ZM162.205 35.2893C161.777 35.2893 161.475 35.2198 161.299 35.081C161.123 34.9422 161.035 34.6961 161.035 34.3426V33.9829C161.035 33.6169 161.129 33.3708 161.318 33.2445C161.519 33.1057 161.821 33.0363 162.224 33.0363C162.664 33.0363 162.973 33.1057 163.149 33.2445C163.325 33.3833 163.413 33.6295 163.413 33.9829V34.3426C163.413 34.7087 163.319 34.9612 163.13 35.1C162.941 35.2262 162.633 35.2893 162.205 35.2893ZM173.952 36.3306C174.279 36.3306 174.55 36.4379 174.764 36.6525C174.977 36.867 175.085 37.1447 175.085 37.4855V45.4942C175.085 45.8223 174.977 46.1 174.764 46.3272C174.55 46.5418 174.279 46.6491 173.952 46.6491C173.625 46.6491 173.354 46.5418 173.14 46.3272C172.927 46.1 172.819 45.8223 172.819 45.4942V44.5665L173.235 44.7369C173.235 44.901 173.146 45.1029 172.97 45.3427C172.795 45.5699 172.555 45.7971 172.253 46.0243C171.951 46.2515 171.593 46.4471 171.177 46.6112C170.775 46.7627 170.334 46.8384 169.856 46.8384C168.988 46.8384 168.201 46.6175 167.496 46.1758C166.792 45.7214 166.232 45.1029 165.816 44.3203C165.414 43.5252 165.212 42.6164 165.212 41.594C165.212 40.559 165.414 39.6502 165.816 38.8676C166.232 38.0724 166.785 37.4539 167.478 37.0122C168.17 36.5578 168.937 36.3306 169.78 36.3306C170.322 36.3306 170.819 36.4126 171.272 36.5767C171.725 36.7409 172.115 36.9491 172.442 37.2015C172.782 37.4539 173.04 37.7127 173.216 37.9778C173.405 38.2302 173.499 38.4448 173.499 38.6215L172.819 38.8676V37.4855C172.819 37.1574 172.927 36.8859 173.14 36.6714C173.354 36.4442 173.625 36.3306 173.952 36.3306ZM170.139 44.7558C170.692 44.7558 171.177 44.617 171.593 44.3393C172.008 44.0616 172.329 43.6829 172.555 43.2033C172.795 42.7237 172.914 42.1872 172.914 41.594C172.914 40.9881 172.795 40.4454 172.555 39.9657C172.329 39.4861 172.008 39.1075 171.593 38.8298C171.177 38.5521 170.692 38.4132 170.139 38.4132C169.598 38.4132 169.12 38.5521 168.704 38.8298C168.289 39.1075 167.962 39.4861 167.723 39.9657C167.496 40.4454 167.383 40.9881 167.383 41.594C167.383 42.1872 167.496 42.7237 167.723 43.2033C167.962 43.6829 168.289 44.0616 168.704 44.3393C169.12 44.617 169.598 44.7558 170.139 44.7558Z" fill="white"/>
<path d="M28.4015 47.6462L21.6386 47.5681L21.1914 46.1855C20.9455 45.4251 20.6651 44.7148 20.5683 44.6072C20.4716 44.4996 19.6898 45.1238 18.831 45.9942L17.2695 47.5769H10.9266H4.58371L4.28809 46.7183C4.1255 46.246 3.09417 43.3316 1.99624 40.2416C0.898312 37.1518 0 34.4748 0 34.2929C0 34.1109 2.77697 31.0747 6.17105 27.5457L12.3421 21.1294L11.8611 19.7563C11.5965 19.0011 10.6717 16.3575 9.80591 13.8818L8.23181 9.38039L12.7424 4.69016L17.253 0L25.5607 0.0107745C34.6571 0.0226162 35.5329 0.130758 38.5049 1.60976C42.8507 3.77243 46.6131 8.29682 47.8397 12.8351C48.2712 14.4316 48.3102 17.3356 47.9152 18.4718C47.6508 19.2329 47.697 19.3694 48.4879 20.1624C52.0305 23.715 53.5274 27.1268 53.4997 31.5857C53.459 38.1159 50.3415 43.7818 45.5249 46.0797C42.2702 47.6325 40.5835 47.7867 28.4016 47.6462L28.4015 47.6462ZM13.0415 38.0796C16.3719 34.5997 19.1695 31.8355 19.2583 31.937C19.3471 32.0385 20.162 34.2615 21.0692 36.877C21.9765 39.4926 22.8722 42.0108 23.0599 42.4731L23.401 43.3136L26.1877 40.4772C27.7205 38.9171 28.9745 37.5603 28.9745 37.4621C28.9745 37.313 23.9047 22.8313 20.6767 13.7598C20.1855 12.3794 19.2202 9.65819 18.5316 7.71273L17.2796 4.17553L14.4685 7.17486L11.6573 10.1742L12.9646 13.8825C13.6836 15.922 14.6037 18.5556 15.0094 19.7348L15.747 21.8791L9.58566 28.2811C6.19688 31.8023 3.42426 34.8347 3.42426 35.0199C3.42426 35.2051 3.96684 36.8876 4.62999 38.7587C6.48976 44.0065 6.64505 44.4066 6.8214 44.4066C6.912 44.4066 9.71102 41.5594 13.0415 38.0796ZM42.1118 43.6447C44.0056 43.0534 45.6972 42.0951 46.6708 41.0617C47.4124 40.2744 49.3153 37.2441 49.1636 37.0919C49.1151 37.0433 48.5678 37.183 47.9476 37.4025C47.0517 37.7197 45.4018 37.8017 39.923 37.8017C34.7944 37.8017 32.9238 37.8864 32.6266 38.132C32.4068 38.3136 31.0026 39.7402 29.5063 41.3023L26.7857 44.1424H33.6515C39.6366 44.1424 40.7219 44.0786 42.1118 43.6447ZM43.4617 29.3474C44.6418 28.1638 43.6905 25.7845 41.7045 24.9523C40.5479 24.4675 33.7158 24.4374 33.7158 24.9171C33.7158 25.0959 34.0876 26.2847 34.542 27.559L35.3683 29.8758H39.1516C42.5837 29.8758 42.9838 29.8267 43.4617 29.3474ZM38.2175 14.0608C39.1629 12.8883 38.6161 11.1219 36.9711 10.0341C36.3167 9.60139 35.6925 9.53589 32.2062 9.53443L28.1942 9.53228L29.0176 11.844C29.4705 13.1154 29.964 14.313 30.1143 14.5051C30.3236 14.7726 31.2462 14.8345 34.0512 14.7692C37.5333 14.6883 37.7395 14.6532 38.2175 14.0604V14.0608Z" fill="white"/>
<rect x="63" y="1" width="3" height="50" rx="1.5" fill="white"/>
</svg>
